<svg width="24" height="24" viewBox="0 0 24 24" fill="none" xmlns="http://www.w3.org/2000/svg">
<path d="M18.4475 17.1362H5.55247C4.17391 17.1275 2.84724 16.6105 1.82751 15.6847C0.807787 14.7588 0.166999 13.4894 0.0283463 12.1205C-0.110307 10.7516 0.262962 9.37991 1.07639 8.26909C1.88982 7.15826 3.08598 6.38674 4.4349 6.10286C4.80603 4.37537 5.75951 2.82714 7.13626 1.7165C8.513 0.605865 10.2297 0 12 0C13.7703 0 15.487 0.605865 16.8637 1.7165C18.2405 2.82714 19.194 4.37537 19.5651 6.10286C20.914 6.38674 22.1102 7.15826 22.9236 8.26909C23.737 9.37991 24.1103 10.7516 23.9717 12.1205C23.833 13.4894 23.1922 14.7588 22.1725 15.6847C21.1528 16.6105 19.8261 17.1275 18.4475 17.1362ZM12 1.69293C10.5331 1.69439 9.11721 2.23056 8.01855 3.20064C6.91989 4.17072 6.21411 5.5079 6.03389 6.96082L5.98231 7.69867H5.24299C4.217 7.73962 3.24933 8.18567 2.55286 8.93868C1.85639 9.69169 1.48818 10.69 1.52922 11.7139C1.57026 12.7379 2.01719 13.7036 2.7717 14.3987C3.52621 15.0938 4.52648 15.4613 5.55247 15.4203H18.4475C19.4735 15.4613 20.4738 15.0938 21.2283 14.3987C21.9828 13.7036 22.4297 12.7379 22.4708 11.7139C22.5118 10.69 22.1436 9.69169 21.4471 8.93868C20.7507 8.18567 19.783 7.73962 18.757 7.69867H18.0177L17.9317 6.99514C17.76 5.54185 17.0625 4.20113 15.9703 3.22482C14.8781 2.2485 13.4662 1.70377 12 1.69293ZM10.2807 23.9999C10.1458 24.0016 10.0127 23.9691 9.89381 23.9056C9.69133 23.8027 9.53789 23.624 9.46701 23.4086C9.39614 23.1932 9.41359 22.9585 9.51555 22.7559L11.2349 19.324C11.2803 19.2151 11.3478 19.1167 11.4331 19.035C11.5183 18.9533 11.6196 18.89 11.7305 18.8491C11.8413 18.8082 11.9595 18.7906 12.0775 18.7973C12.1955 18.804 12.3109 18.835 12.4164 18.8882C12.5219 18.9415 12.6153 19.0158 12.6907 19.1067C12.7661 19.1976 12.8219 19.303 12.8546 19.4164C12.8873 19.5297 12.8962 19.6486 12.8809 19.7656C12.8655 19.8826 12.8261 19.9951 12.7651 20.0962L11.0458 23.5281C10.9743 23.6696 10.865 23.7885 10.73 23.8718C10.5949 23.9551 10.4394 23.9995 10.2807 23.9999ZM15.4387 23.9999C15.3038 24.0016 15.1707 23.9691 15.0518 23.9056C14.8494 23.8027 14.6959 23.624 14.625 23.4086C14.5542 23.1932 14.5716 22.9585 14.6736 22.7559L16.3929 19.324C16.4384 19.2151 16.5058 19.1167 16.5911 19.035C16.6764 18.9533 16.7776 18.89 16.8885 18.8491C16.9994 18.8082 17.1175 18.7906 17.2355 18.7973C17.3536 18.804 17.4689 18.835 17.5744 18.8882C17.6799 18.9415 17.7733 19.0158 17.8487 19.1067C17.9241 19.1976 17.9799 19.303 18.0126 19.4164C18.0453 19.5297 18.0543 19.6486 18.0389 19.7656C18.0235 19.8826 17.9841 19.9951 17.9231 20.0962L16.2038 23.5281C16.1323 23.6696 16.023 23.7885 15.888 23.8718C15.753 23.9551 15.5974 23.9995 15.4387 23.9999ZM5.12264 23.9999C4.98778 24.0016 4.8547 23.9691 4.73579 23.9056C4.53331 23.8027 4.37987 23.624 4.30899 23.4086C4.23811 23.1932 4.25557 22.9585 4.35753 22.7559L6.07687 19.324C6.12232 19.2151 6.18978 19.1167 6.27505 19.035C6.36032 18.9533 6.46156 18.89 6.57244 18.8491C6.68333 18.8082 6.80147 18.7906 6.9195 18.7973C7.03752 18.804 7.15289 18.835 7.25838 18.8882C7.36388 18.9415 7.45724 19.0158 7.53264 19.1067C7.60803 19.1976 7.66383 19.303 7.69656 19.4164C7.72928 19.5297 7.73823 19.6486 7.72283 19.7656C7.70744 19.8826 7.66804 19.9951 7.60709 20.0962L5.88775 23.5281C5.81631 23.6696 5.70701 23.7885 5.57196 23.8718C5.43691 23.9551 5.28139 23.9995 5.12264 23.9999Z" fill="white"/>
</svg>
