<svg width="24" height="24" viewBox="0 0 24 24" fill="none" xmlns="http://www.w3.org/2000/svg">
<path d="M18.4475 16.5448H5.55247C4.17391 16.5364 2.84724 16.0373 1.82751 15.1433C0.807787 14.2494 0.166999 13.0238 0.0283463 11.7022C-0.110307 10.3806 0.262962 9.05619 1.07639 7.9837C1.88982 6.91121 3.08598 6.16632 4.4349 5.89223C4.80603 4.22436 5.75951 2.72957 7.13626 1.65726C8.513 0.584955 10.2297 0 12 0C13.7703 0 15.487 0.584955 16.8637 1.65726C18.2405 2.72957 19.194 4.22436 19.5651 5.89223C20.914 6.16632 22.1102 6.91121 22.9236 7.9837C23.737 9.05619 24.1103 10.3806 23.9717 11.7022C23.833 13.0238 23.1922 14.2494 22.1725 15.1433C21.1528 16.0373 19.8261 16.5364 18.4475 16.5448ZM12 1.63451C10.5331 1.63591 9.11721 2.15357 8.01855 3.09018C6.91989 4.02678 6.21411 5.31781 6.03389 6.72059L5.98231 7.43297H5.24299C4.217 7.47251 3.24933 7.90316 2.55286 8.63018C1.85639 9.3572 1.48818 10.321 1.52922 11.3097C1.57026 12.2983 2.01719 13.2307 2.7717 13.9018C3.52621 14.5729 4.52648 14.9277 5.55247 14.8881H18.4475C19.4735 14.9277 20.4738 14.5729 21.2283 13.9018C21.9828 13.2307 22.4297 12.2983 22.4708 11.3097C22.5118 10.321 22.1436 9.3572 21.4471 8.63018C20.7507 7.90316 19.783 7.47251 18.757 7.43297H18.0177L17.9317 6.75372C17.76 5.35059 17.0625 4.05614 15.9703 3.11352C14.8781 2.1709 13.4662 1.64497 12 1.63451ZM8.56132 19.0713L7.65867 18.2015L6.41214 19.4026L5.16562 18.2015L4.26297 19.0713L5.50949 20.2724L4.26297 21.4735L5.16562 22.3433L6.41214 21.1422L7.65867 22.3433L8.56132 21.4735L7.3148 20.2724L8.56132 19.0713ZM20.5967 19.0713L19.694 18.2015L18.4475 19.4026L17.201 18.2015L16.2984 19.0713L17.5449 20.2724L16.2984 21.4735L17.201 22.3433L18.4475 21.1422L19.694 22.3433L20.5967 21.4735L19.3502 20.2724L20.5967 19.0713ZM14.579 20.728L13.6764 19.8582L12.4298 21.0594L11.1833 19.8582L10.2807 20.728L11.5272 21.9291L10.2807 23.1302L11.1833 24L12.4298 22.7989L13.6764 24L14.579 23.1302L13.3325 21.9291L14.579 20.728Z" fill="white"/>
</svg>
