<svg width="24" height="24" viewBox="0 0 24 24" fill="none" xmlns="http://www.w3.org/2000/svg">
<path d="M18 19.6364C18 20.7937 17.6388 21.9036 16.9958 22.7219C16.3528 23.5403 15.4807 24 14.5714 24C13.1036 24 11.6839 22.7823 11.1964 21.1064C11.1222 20.8365 11.1342 20.5405 11.2298 20.2818C11.3254 20.0231 11.497 19.8225 11.7076 19.7232C11.9182 19.6238 12.151 19.6336 12.356 19.7505C12.5609 19.8674 12.7217 20.082 12.8036 20.3482C13.0436 21.1732 13.8214 21.8182 14.5714 21.8182C15.0261 21.8182 15.4621 21.5883 15.7836 21.1791C16.1051 20.77 16.2857 20.215 16.2857 19.6364C16.2857 19.0577 16.1051 18.5028 15.7836 18.0936C15.4621 17.6844 15.0261 17.4545 14.5714 17.4545H2.57143C2.3441 17.4545 2.12608 17.3396 1.96534 17.135C1.80459 16.9304 1.71429 16.653 1.71429 16.3636C1.71429 16.0743 1.80459 15.7968 1.96534 15.5922C2.12608 15.3877 2.3441 15.2727 2.57143 15.2727H14.5714C15.4807 15.2727 16.3528 15.7325 16.9958 16.5508C17.6388 17.3691 18 18.4791 18 19.6364ZM11.1429 8.72727C12.0522 8.72727 12.9242 8.26753 13.5672 7.44919C14.2102 6.63085 14.5714 5.52095 14.5714 4.36364C14.5714 3.20633 14.2102 2.09642 13.5672 1.27808C12.9242 0.459739 12.0522 0 11.1429 0C9.675 0 8.25536 1.21773 7.76786 2.89364C7.69368 3.16345 7.70567 3.45954 7.80126 3.71822C7.89685 3.9769 8.0684 4.17748 8.27899 4.27683C8.48959 4.37619 8.72242 4.36636 8.92739 4.24948C9.13235 4.13259 9.29308 3.91798 9.375 3.65182C9.615 2.82682 10.3929 2.18182 11.1429 2.18182C11.5975 2.18182 12.0335 2.41169 12.355 2.82086C12.6765 3.23003 12.8571 3.78498 12.8571 4.36364C12.8571 4.94229 12.6765 5.49724 12.355 5.90641C12.0335 6.31558 11.5975 6.54545 11.1429 6.54545H0.857143C0.629814 6.54545 0.411797 6.66039 0.251051 6.86497C0.0903058 7.06956 0 7.34704 0 7.63636C0 7.92569 0.0903058 8.20317 0.251051 8.40775C0.411797 8.61234 0.629814 8.72727 0.857143 8.72727H11.1429ZM20.5714 4.36364C19.1036 4.36364 17.6839 5.58136 17.1964 7.25727C17.1222 7.52709 17.1342 7.82318 17.2298 8.08186C17.3254 8.34053 17.497 8.54112 17.7076 8.64047C17.9182 8.73982 18.151 8.73 18.356 8.61311C18.5609 8.49623 18.7217 8.28162 18.8036 8.01545C19.0436 7.19045 19.8214 6.54545 20.5714 6.54545C21.0261 6.54545 21.4621 6.77532 21.7836 7.18449C22.1051 7.59367 22.2857 8.14862 22.2857 8.72727C22.2857 9.30593 22.1051 9.86088 21.7836 10.2701C21.4621 10.6792 21.0261 10.9091 20.5714 10.9091H1.71429C1.48696 10.9091 1.26894 11.024 1.10819 11.2286C0.947449 11.4332 0.857143 11.7107 0.857143 12C0.857143 12.2893 0.947449 12.5668 1.10819 12.7714C1.26894 12.976 1.48696 13.0909 1.71429 13.0909H20.5714C21.4807 13.0909 22.3528 12.6312 22.9958 11.8128C23.6388 10.9945 24 9.88458 24 8.72727C24 7.56996 23.6388 6.46006 22.9958 5.64172C22.3528 4.82338 21.4807 4.36364 20.5714 4.36364Z" fill="white"/>
</svg>
